<svg width="7" height="13" viewBox="0 0 7 13" fill="none" xmlns="http://www.w3.org/2000/svg">
<path d="M0.292749 12.1822C0.292606 12.0755 0.313592 11.9699 0.354499 11.8713C0.395405 11.7728 0.45542 11.6833 0.531082 11.6081L4.68675 7.45187C4.81253 7.32612 4.91231 7.17682 4.98039 7.01251C5.04846 6.84819 5.0835 6.67207 5.0835 6.49421C5.0835 6.31635 5.04846 6.14022 4.98039 5.97591C4.91231 5.81159 4.81253 5.66229 4.68675 5.53654L0.536498 1.38683C0.458896 1.31188 0.396998 1.22223 0.354416 1.1231C0.311833 1.02397 0.28942 0.917354 0.288482 0.80947C0.287545 0.701587 0.308102 0.594597 0.348955 0.494743C0.389809 0.394891 0.450139 0.304173 0.526427 0.227886C0.602715 0.151598 0.693432 0.0912666 0.793285 0.0504141C0.893139 0.00956056 1.00013 -0.0109968 1.10801 -0.0100594C1.21589 -0.00912194 1.32251 0.0132913 1.42164 0.0558738C1.52077 0.0984563 1.61042 0.160354 1.68537 0.237956L5.83562 4.38766C6.39363 4.94671 6.70703 5.70433 6.70703 6.49421C6.70703 7.28409 6.39363 8.0417 5.83562 8.60075L1.67996 12.757C1.56633 12.8707 1.42152 12.9481 1.26386 12.9795C1.1062 13.0109 0.942779 12.9948 0.794269 12.9332C0.645758 12.8717 0.518836 12.7675 0.429562 12.6338C0.340288 12.5002 0.292676 12.343 0.292749 12.1822Z" fill="#98A2B3"/>
</svg>
