<svg width="18" height="18" viewBox="0 0 18 18" fill="none" xmlns="http://www.w3.org/2000/svg">
<g clip-path="url(#clip0_860_17021)">
<path d="M8.25 2.99919H3C2.60218 2.99919 2.22064 3.15723 1.93934 3.43853C1.65804 3.71984 1.5 4.10137 1.5 4.49919V14.9992C1.5 15.397 1.65804 15.7785 1.93934 16.0599C2.22064 16.3412 2.60218 16.4992 3 16.4992H13.5C13.8978 16.4992 14.2794 16.3412 14.5607 16.0599C14.842 15.7785 15 15.397 15 14.9992V9.74919M13.875 1.87419C14.1734 1.57582 14.578 1.4082 15 1.4082C15.422 1.4082 15.8266 1.57582 16.125 1.87419C16.4234 2.17256 16.591 2.57724 16.591 2.99919C16.591 3.42115 16.4234 3.82582 16.125 4.12419L9 11.2492L6 11.9992L6.75 8.99919L13.875 1.87419Z" stroke="#344054" stroke-width="1.5" stroke-linecap="round" stroke-linejoin="round"/>
</g>
<defs>
<clipPath id="clip0_860_17021">
<rect width="18" height="18" fill="white"/>
</clipPath>
</defs>
</svg>
