<svg width="18" height="18" viewBox="0 0 18 18" fill="none" xmlns="http://www.w3.org/2000/svg">
<rect width="18" height="18" rx="2" fill="white" fill-opacity="0.1"/>
<path d="M8.99924 14.9995C8.82861 14.9995 8.65798 14.9346 8.52778 14.8049L7.19473 13.4718C7.13265 13.41 7.08344 13.3366 7.04996 13.2556C7.01647 13.1747 6.99938 13.0879 6.99966 13.0004V8.99365C6.50617 8.62165 6.12536 8.12022 5.89947 7.54498C5.67358 6.96975 5.61143 6.34318 5.71993 5.73478C5.95366 4.39551 7.00499 3.32196 8.33538 3.06334C8.82184 2.96587 9.32388 2.97765 9.80523 3.09784C10.2866 3.21802 10.7352 3.44361 11.1188 3.75831C11.4988 4.07075 11.8049 4.46361 12.0148 4.90858C12.2247 5.35355 12.3333 5.83954 12.3328 6.33154C12.3328 7.66859 11.5125 8.88123 10.2994 9.39712L10.7113 9.80903C10.8362 9.93408 10.9063 10.1036 10.9063 10.2803C10.9063 10.457 10.8362 10.6265 10.7113 10.7515L9.77641 11.6864L10.7113 12.6213C10.8362 12.7464 10.9063 12.9159 10.9063 13.0926C10.9063 13.2693 10.8362 13.4387 10.7113 13.5638L9.47025 14.8049C9.40843 14.8667 9.335 14.9158 9.25417 14.9492C9.17334 14.9826 9.0867 14.9997 8.99924 14.9995ZM7.88836 12.9084L8.99924 14.0193L9.92616 13.0923L8.99124 12.1574C8.86669 12.0323 8.79673 11.863 8.79664 11.6865C8.79656 11.51 8.86636 11.3406 8.9908 11.2154L9.92616 10.2805L9.42226 9.77615C9.34051 9.69534 9.28137 9.59452 9.25073 9.48373C9.22009 9.37294 9.21902 9.25606 9.24763 9.14473C9.3054 8.915 9.47603 8.73726 9.70354 8.66927C10.2052 8.51645 10.6448 8.20708 10.958 7.78644C11.2712 7.3658 11.4415 6.85596 11.4441 6.33154C11.4441 5.59925 11.1197 4.9114 10.5531 4.44439C9.98703 3.97826 9.23963 3.79252 8.50468 3.9356C8.02703 4.03134 7.58932 4.26879 7.24864 4.617C6.90796 4.96521 6.68013 5.40801 6.59486 5.88764C6.50918 6.36533 6.56684 6.8577 6.76058 7.30266C6.95432 7.74763 7.27546 8.12528 7.68352 8.388C7.74622 8.42823 7.7978 8.48358 7.83352 8.54895C7.86924 8.61433 7.88794 8.68764 7.88792 8.76214V12.9084H7.88836ZM9.00013 6.10937C8.63265 6.10937 8.3336 5.81032 8.3336 5.44284C8.3336 5.07536 8.63265 4.77632 9.00013 4.77632C9.36761 4.77632 9.66666 5.07536 9.66666 5.44284C9.66666 5.81032 9.36761 6.10937 9.00013 6.10937Z" fill="#12B76A"/>
</svg>
