<svg width="22" height="24" viewBox="0 0 22 24" fill="none" xmlns="http://www.w3.org/2000/svg">
<path d="M10.996 0C11.8239 0 12.4951 0.671195 12.4951 1.49915V6.49631C12.4951 7.32426 11.8239 7.99546 10.996 7.99546C10.168 7.99546 9.49683 7.32426 9.49683 6.49631V1.49915C9.49683 0.671195 10.168 0 10.996 0Z" fill="#98A2B3"/>
<path d="M14.494 4.93705C14.4867 5.4403 14.7404 5.9115 15.1646 6.18233C18.9327 8.48459 20.121 13.4056 17.8187 17.1737C15.5164 20.9417 10.5954 22.13 6.82733 19.8278C3.05923 17.5255 1.87097 12.6045 4.17328 8.83638C4.83113 7.75971 5.73446 6.85399 6.80939 6.19329C7.24091 5.92246 7.50148 5.44747 7.49801 4.93799C7.50031 4.11004 6.83099 3.43702 6.00304 3.43472C5.71867 3.43393 5.43992 3.51404 5.19935 3.66573C0.0415922 6.86941 -1.54249 13.6476 1.66114 18.8053C4.86476 23.963 11.643 25.5471 16.8007 22.3435C21.9584 19.1399 23.5425 12.3617 20.3388 7.20395C19.4471 5.76828 18.2363 4.55754 16.8007 3.66578C16.0981 3.22255 15.1692 3.4328 14.726 4.13539C14.5746 4.37534 14.4942 4.65329 14.494 4.93705Z" fill="#98A2B3"/>
</svg>
