<svg width="355" height="237" viewBox="0 0 355 237" fill="none" xmlns="http://www.w3.org/2000/svg">
<path d="M177.5 216.48C254.458 216.48 316.845 209.813 316.845 201.587C316.845 193.362 254.458 186.694 177.5 186.694C100.542 186.694 38.1554 193.362 38.1554 201.587C38.1554 209.813 100.542 216.48 177.5 216.48Z" fill="#F4F4F4"/>
<path d="M229.084 116.708H111.887V201.782H229.084V116.708Z" fill="#98A2B3"/>
<path d="M153.294 107.901H111.887V116.708H155.675L153.294 107.901Z" fill="#98A2B3"/>
<g opacity="0.1">
<path d="M229.084 116.708H111.887V201.782H229.084V116.708Z" fill="black"/>
<path d="M153.294 107.901H111.887V116.708H155.675L153.294 107.901Z" fill="black"/>
</g>
<path d="M206.165 164.753C183.279 158.235 160.9 151.798 138.862 145.418L138.729 145.38L138.753 145.257C144.277 119.325 159.774 93.923 160.768 67.597C160.768 67.5307 160.768 67.4643 160.768 67.3979L160.99 67.4596C183.871 73.6548 206.236 79.8594 228.251 86.0878L228.402 86.1304L228.369 86.2726C222.713 112.603 207.169 138.242 206.165 164.753ZM206.165 164.753C207.064 138.209 222.528 112.546 228.071 86.1873C228.114 86.2442 228.151 86.3058 228.194 86.3674C206.184 80.1817 183.833 74.015 160.981 67.8577L161.213 67.7203C160.124 94.0273 144.58 119.419 139.023 145.338L138.914 145.177C160.933 151.632 183.284 158.155 206.165 164.753Z" fill="#DBDBDB"/>
<path d="M202.544 116.604C199.141 125.7 188.817 130.772 179.213 127.923C169.61 125.074 164.54 115.466 167.853 106.418C171.167 97.369 181.107 92.1977 190.829 95.0132C200.551 97.8288 205.985 107.475 202.544 116.604Z" fill="#455A64"/>
<path d="M185.215 111.475C181.272 115.988 177.282 120.481 173.382 124.989C170.566 122.914 168.504 119.974 167.509 116.618C166.514 113.262 166.64 109.672 167.868 106.394C171.134 97.3881 181.168 92.2167 190.843 94.9896C200.518 97.7625 205.962 107.532 202.539 116.58C196.768 114.874 190.993 113.172 185.215 111.475Z" fill="#DBDBDB"/>
<path d="M185.215 111.475C188.656 116.106 192.06 120.737 195.534 125.382C193.164 126.973 190.473 128.023 187.653 128.457C184.833 128.892 181.952 128.702 179.213 127.899C169.605 125.079 164.573 115.386 167.853 106.394C171.134 97.4021 181.154 92.2165 190.829 94.9894C200.504 97.7623 205.947 107.531 202.525 116.58C196.763 114.874 190.993 113.172 185.215 111.475Z" fill="#DBDBDB"/>
<path d="M164.081 130.909C176.318 134.521 188.625 138.155 201.001 141.811C200.816 142.48 200.637 143.153 200.461 143.821C188.038 140.171 175.697 136.537 163.437 132.919C163.646 132.243 163.86 131.573 164.081 130.909Z" fill="#DBDBDB"/>
<path d="M162.481 135.938C174.788 139.563 187.191 143.208 199.69 146.874C199.529 147.547 199.377 148.22 199.217 148.888C186.676 145.219 174.231 141.568 161.88 137.934C162.084 137.266 162.278 136.602 162.481 135.938Z" fill="#DBDBDB"/>
<path d="M161.047 140.972C173.467 144.619 185.99 148.283 198.615 151.964C198.492 152.637 198.374 153.31 198.265 153.988C185.564 150.294 172.986 146.622 160.531 142.972C160.697 142.304 160.872 141.636 161.047 140.972Z" fill="#DBDBDB"/>
<path d="M156.844 130.966L152.413 129.653C152.636 128.989 152.863 128.331 153.09 127.667L157.535 128.975C157.292 129.639 157.061 130.302 156.844 130.966Z" fill="#98A2B3"/>
<path d="M155.253 135.986L150.771 134.668C150.974 134.005 151.183 133.341 151.396 132.682L155.864 133.995C155.66 134.659 155.462 135.322 155.253 135.986Z" fill="#455A64"/>
<path d="M153.833 141.015L149.313 139.692C149.493 139.029 149.677 138.365 149.867 137.702L154.368 139.019C154.198 139.683 154.018 140.351 153.833 141.015Z" fill="#DBDBDB"/>
<path d="M227.347 105.398C227.113 135.674 226.829 165.612 226.495 195.212C189.414 197.397 149.947 184.827 113.624 191.685C113.851 161.413 114.135 131.473 114.476 101.867C151.557 99.6866 191.018 112.257 227.347 105.398Z" fill="#98A2B3"/>
<path opacity="0.8" d="M227.347 105.398C227.113 135.674 226.829 165.612 226.495 195.212C189.414 197.397 149.947 184.827 113.624 191.685C113.851 161.413 114.135 131.473 114.476 101.867C151.557 99.6866 191.018 112.257 227.347 105.398Z" fill="white"/>
<path d="M130.039 181.584C130.231 165.152 130.438 148.804 130.659 132.54C131.606 132.54 132.57 132.559 133.551 132.596C133.33 148.833 133.117 165.132 132.912 181.494C131.953 181.526 130.995 181.556 130.039 181.584Z" fill="#DBDBDB"/>
<path d="M137.3 181.461C137.514 165.162 137.738 148.928 137.972 132.758C138.942 132.8 139.908 132.853 140.878 132.909C140.642 149.051 140.411 165.246 140.187 181.494C139.226 181.476 138.261 181.461 137.3 181.461Z" fill="#DBDBDB"/>
<path d="M144.603 181.632C144.837 165.434 145.074 149.288 145.313 133.194L148.234 133.421C147.985 149.496 147.74 165.612 147.5 181.769C146.541 181.719 145.575 181.673 144.603 181.632Z" fill="#DBDBDB"/>
<path d="M151.94 182.039C152.3 158.441 152.671 134.913 153.052 111.456L155.982 111.755C155.6 135.208 155.227 158.709 154.86 182.257C153.895 182.182 152.925 182.106 151.94 182.039Z" fill="#DBDBDB"/>
<path d="M159.324 182.637C159.696 159.12 160.077 135.652 160.465 112.233L163.399 112.556C163.018 135.984 162.636 159.434 162.254 182.907C161.279 182.812 160.299 182.722 159.324 182.637Z" fill="#DBDBDB"/>
<path d="M166.722 183.357C167.101 159.897 167.484 136.46 167.872 113.044L170.812 113.362C170.424 136.806 170.037 160.24 169.652 183.665L166.722 183.357Z" fill="#DBDBDB"/>
<path d="M174.125 184.149C174.513 160.721 174.898 137.281 175.28 113.831L178.21 114.125C177.834 137.607 177.453 161.056 177.065 184.471L174.125 184.149Z" fill="#DBDBDB"/>
<path d="M181.538 184.959C181.923 161.525 182.301 138.052 182.674 114.542C183.649 114.627 184.624 114.708 185.599 114.784C185.23 138.342 184.854 161.838 184.472 185.272C183.492 185.173 182.517 185.068 181.538 184.959Z" fill="#DBDBDB"/>
<path d="M188.94 185.732C189.319 162.256 189.687 138.714 190.043 115.106C191.014 115.172 191.989 115.229 192.954 115.281C192.61 138.947 192.249 162.522 191.87 186.007L188.94 185.732Z" fill="#DBDBDB"/>
<path d="M196.329 186.405C196.695 162.857 197.047 139.218 197.385 115.49C198.35 115.528 199.316 115.556 200.282 115.575C199.966 139.379 199.622 163.067 199.25 186.637L196.329 186.405Z" fill="#DBDBDB"/>
<path d="M203.69 186.931C204.04 163.279 204.371 139.511 204.684 115.628C205.63 115.628 206.589 115.618 207.561 115.599C207.268 139.571 206.952 163.399 206.615 187.083C205.637 187.042 204.661 186.991 203.69 186.931Z" fill="#DBDBDB"/>
<path d="M211.021 187.23C211.337 163.445 211.642 139.514 211.935 115.438C212.882 115.39 213.828 115.338 214.775 115.272C214.51 139.446 214.216 163.449 213.895 187.282C212.948 187.285 211.99 187.268 211.021 187.23Z" fill="#DBDBDB"/>
<path d="M224.98 108.276H115.28V193.857H224.98V108.276Z" fill="#EBEBEB"/>
<path d="M224.985 108.276L225.132 193.866V194.018H224.985L115.28 194.098H115.048V193.866L115.105 108.29V108.11H115.28L224.985 108.276ZM224.985 108.276L115.28 108.451L115.46 108.276L115.493 193.866L115.261 193.634L224.966 193.719L224.833 193.866L224.985 108.276Z" fill="#DBDBDB"/>
<path d="M138.725 184.49L138.644 151.064L138.725 117.637L138.81 151.064L138.725 184.49Z" fill="#C7C7C7"/>
<path d="M141.451 184.49L141.366 151.064L141.451 117.637L141.532 151.064L141.451 184.49Z" fill="#C7C7C7"/>
<path d="M144.173 184.49L144.087 151.064L144.173 117.637L144.258 151.064L144.173 184.49Z" fill="#C7C7C7"/>
<path d="M146.895 184.49L146.809 151.064L146.895 117.637L146.98 151.064L146.895 184.49Z" fill="#C7C7C7"/>
<path d="M149.616 184.49L149.531 151.064L149.616 117.637L149.702 151.064L149.616 184.49Z" fill="#C7C7C7"/>
<path d="M152.338 184.49L152.257 151.064L152.338 117.637L152.423 151.064L152.338 184.49Z" fill="#C7C7C7"/>
<path d="M155.064 184.49L154.979 151.064L155.064 117.637L155.145 151.064L155.064 184.49Z" fill="#C7C7C7"/>
<path d="M157.786 184.49L157.7 151.064L157.786 117.637L157.867 151.064L157.786 184.49Z" fill="#C7C7C7"/>
<path d="M160.508 184.49L160.422 151.064L160.508 117.637L160.593 151.064L160.508 184.49Z" fill="#C7C7C7"/>
<path d="M163.229 184.49L163.144 151.064L163.229 117.637L163.315 151.064L163.229 184.49Z" fill="#C7C7C7"/>
<path d="M165.951 184.49L165.865 151.064L165.951 117.637L166.036 151.064L165.951 184.49Z" fill="#C7C7C7"/>
<path d="M168.673 184.49L168.592 151.064L168.673 117.637L168.758 151.064L168.673 184.49Z" fill="#C7C7C7"/>
<path d="M171.399 184.49L171.314 151.064L171.399 117.637L171.48 151.064L171.399 184.49Z" fill="#C7C7C7"/>
<path d="M174.121 184.49L174.035 151.064L174.121 117.637L174.206 151.064L174.121 184.49Z" fill="#C7C7C7"/>
<path d="M176.842 184.49L176.757 151.064L176.842 117.637L176.928 151.064L176.842 184.49Z" fill="#C7C7C7"/>
<path d="M168.587 172.346V177.418H180.013V172.346H168.587Z" fill="#98A2B3"/>
<path d="M162.495 162.942V168.014H180.013V162.942H162.495Z" fill="#98A2B3"/>
<path d="M155.67 153.543V158.615H180.013V153.543H155.67Z" fill="#98A2B3"/>
<path d="M152.74 144.134V149.206H180.013V144.134H152.74Z" fill="#98A2B3"/>
<path d="M147.524 134.729V139.801H180.018V134.729H147.524Z" fill="#98A2B3"/>
<path d="M142.36 125.326V130.397H180.013V125.326H142.36Z" fill="#98A2B3"/>
<path d="M136.817 182.679L147.614 182.547L158.415 182.457C165.615 182.395 172.814 182.376 180.013 182.362L179.701 182.679V166.417L179.739 150.158L179.843 133.895L180.028 117.637L180.217 133.895L180.316 150.158L180.354 166.417V182.679V182.992H180.042C172.842 182.992 165.643 182.959 158.444 182.898L147.642 182.807L136.817 182.679Z" fill="#C7C7C7"/>
<path d="M182.3 172.351V177.423H182.759V172.351H182.3Z" fill="#C7C7C7"/>
<path d="M182.295 162.947V168.019H182.754V162.947H182.295Z" fill="#C7C7C7"/>
<path d="M182.295 153.543V158.615H182.754V153.543H182.295Z" fill="#C7C7C7"/>
<path d="M182.295 144.134V149.206H182.754V144.134H182.295Z" fill="#C7C7C7"/>
<path d="M182.3 134.729V139.801H182.759V134.729H182.3Z" fill="#C7C7C7"/>
<path d="M182.3 125.326V130.397H182.759V125.326H182.3Z" fill="#C7C7C7"/>
<path d="M170.031 176.849C169.988 174.372 169.795 171.899 169.453 169.445C169.145 166.992 168.707 164.557 168.142 162.15C167.059 157.331 165.415 152.655 163.243 148.219C161.11 143.77 158.326 139.665 154.984 136.038L154.363 135.355L153.706 134.706L152.385 133.412C151.438 132.615 150.553 131.757 149.545 131.042C147.599 129.509 145.542 128.123 143.392 126.894L143.415 126.852C150.116 130.233 155.854 135.257 160.096 141.456C161.519 143.507 162.785 145.664 163.882 147.907C166.056 152.4 167.665 157.146 168.672 162.037C169.726 166.9 170.182 171.875 170.031 176.849Z" fill="#263238"/>
<path d="M146.942 125.454L147.117 126.155L143.661 127.018L144.774 130.407L144.083 130.63L142.734 126.501L146.942 125.454Z" fill="#263238"/>
<path d="M199.818 185.921V116.206H197.001V185.921H199.818Z" fill="#DBDBDB"/>
<path d="M206.927 185.917V146.67H204.111V185.917H206.927Z" fill="#DBDBDB"/>
<path d="M130.223 170.687V131.44H127.407V170.687H130.223Z" fill="#DBDBDB"/>
<path d="M245.21 112.423L245.168 198.004L135.463 197.947L135.496 134.407L156.408 112.38L245.21 112.423Z" fill="#98A2B3"/>
<path opacity="0.6" d="M245.21 112.423L245.168 198.004L135.463 197.947L135.496 134.407L156.408 112.38L245.21 112.423Z" fill="white"/>
<path d="M135.496 134.407L156.408 112.38L156.399 134.417L135.496 134.407Z" fill="#98A2B3"/>
<path opacity="0.4" d="M135.496 134.407L156.408 112.38L156.399 134.417L135.496 134.407Z" fill="white"/>
<path d="M156.688 189.608L156.713 142.028L153.897 142.027L153.872 189.607L156.688 189.608Z" fill="white"/>
<path d="M163.799 189.608L163.824 142.028L161.007 142.027L160.983 189.607L163.799 189.608Z" fill="white"/>
<path d="M170.909 189.613L170.934 142.033L168.118 142.032L168.093 189.612L170.909 189.613Z" fill="white"/>
<path d="M178.019 189.619L178.055 119.903L175.239 119.902L175.203 189.618L178.019 189.619Z" fill="white"/>
<path d="M185.129 189.624L185.166 119.908L182.349 119.906L182.313 189.622L185.129 189.624Z" fill="white"/>
<path d="M192.24 189.629L192.276 119.913L189.46 119.911L189.423 189.627L192.24 189.629Z" fill="white"/>
<path d="M199.35 189.629L199.387 119.913L196.57 119.911L196.534 189.627L199.35 189.629Z" fill="white"/>
<path d="M206.456 189.633L206.492 119.917L203.676 119.916L203.64 189.632L206.456 189.633Z" fill="white"/>
<path d="M213.571 189.633L213.608 119.917L210.791 119.916L210.755 189.632L213.571 189.633Z" fill="white"/>
<path d="M220.682 189.643L220.718 119.927L217.902 119.925L217.865 189.641L220.682 189.643Z" fill="white"/>
<path d="M227.787 189.648L227.824 119.932L225.008 119.93L224.971 189.646L227.787 189.648Z" fill="white"/>
<path d="M234.898 189.648L234.934 119.932L232.118 119.93L232.082 189.646L234.898 189.648Z" fill="white"/>
<path d="M228.776 201.782H111.579L102.538 123.766H219.736L228.776 201.782Z" fill="#BABABA"/>
<path d="M143.013 115.689H101.606L102.538 123.766H146.326L143.013 115.689Z" fill="#BABABA"/>
</svg>
