<svg width="195" height="111" viewBox="0 0 195 111" fill="none" xmlns="http://www.w3.org/2000/svg">
<g filter="url(#filter0_d_60_3672)">
<circle cx="47" cy="60" r="31" fill="white"/>
</g>
<path opacity="0.6" fill-rule="evenodd" clip-rule="evenodd" d="M53.3591 49.6666C53.798 49.6666 54.1539 50.0225 54.1539 50.4615V69.5384C54.1539 69.9773 53.798 70.3333 53.3591 70.3333C52.9201 70.3333 52.5642 69.9773 52.5642 69.5384V50.4615C52.5642 50.0225 52.9201 49.6666 53.3591 49.6666ZM50.1796 52.8461C50.6186 52.8461 50.9744 53.202 50.9744 53.641V69.5384C50.9744 69.9773 50.6186 70.3333 50.1796 70.3333C49.7406 70.3333 49.3847 69.9773 49.3847 69.5384V53.641C49.3847 53.202 49.7406 52.8461 50.1796 52.8461ZM56.5385 52.8461C56.9775 52.8461 57.3334 53.202 57.3334 53.641V69.5384C57.3334 69.9773 56.9775 70.3333 56.5385 70.3333C56.0996 70.3333 55.7437 69.9773 55.7437 69.5384V53.641C55.7437 53.202 56.0996 52.8461 56.5385 52.8461ZM43.8206 54.4359C44.2596 54.4359 44.6155 54.7917 44.6155 55.2307V69.5384C44.6155 69.9773 44.2596 70.3333 43.8206 70.3333C43.3816 70.3333 43.0257 69.9773 43.0257 69.5384V55.2307C43.0257 54.7917 43.3816 54.4359 43.8206 54.4359ZM37.4616 56.0256C37.9006 56.0256 38.2565 56.3815 38.2565 56.8205V69.5384C38.2565 69.9773 37.9006 70.3333 37.4616 70.3333C37.0226 70.3333 36.6667 69.9773 36.6667 69.5384V56.8205C36.6667 56.3815 37.0226 56.0256 37.4616 56.0256ZM47.0001 56.0256C47.4391 56.0256 47.795 56.3815 47.795 56.8205V69.5384C47.795 69.9773 47.4391 70.3333 47.0001 70.3333C46.5611 70.3333 46.2052 69.9773 46.2052 69.5384V56.8205C46.2052 56.3815 46.5611 56.0256 47.0001 56.0256ZM40.6411 59.2051C41.0801 59.2051 41.436 59.561 41.436 60V69.5384C41.436 69.9773 41.0801 70.3333 40.6411 70.3333C40.2021 70.3333 39.8462 69.9773 39.8462 69.5384V60C39.8462 59.561 40.2021 59.2051 40.6411 59.2051Z" fill="#98A2B3"/>
<g filter="url(#filter1_d_60_3672)">
<circle cx="148" cy="60" r="31" fill="white"/>
</g>
<g opacity="0.6">
<path fill-rule="evenodd" clip-rule="evenodd" d="M147.58 49.6855C147.202 49.5711 146.799 49.5711 146.42 49.6855C146.16 49.7645 145.899 49.9305 145.151 50.429L139.151 54.429C138.544 54.834 138.339 54.976 138.186 55.1445C137.965 55.3884 137.807 55.6831 137.727 56.0025C137.671 56.223 137.667 56.4725 137.667 57.2025V66.3951C137.667 67.025 137.667 67.465 137.69 67.8085C137.713 68.1465 137.757 68.3435 137.819 68.4935C137.92 68.7362 138.067 68.9567 138.253 69.1425C138.438 69.3282 138.659 69.4755 138.901 69.576C139.051 69.6385 139.248 69.681 139.586 69.7045C139.93 69.7281 140.369 69.7285 141 69.7285H144.57C144.783 69.7285 144.98 69.8435 145.094 70.025C145.365 70.4555 145.074 71.0616 144.565 71.0616H140.976C140.375 71.0616 139.89 71.0616 139.495 71.035C139.09 71.007 138.73 70.9485 138.391 70.8081C137.574 70.4697 136.925 69.8208 136.587 69.004C136.446 68.664 136.388 68.3055 136.36 67.899C136.333 67.5051 136.333 67.0201 136.333 66.4191V57.12C136.333 56.504 136.333 56.078 136.433 55.6775C136.567 55.1452 136.83 54.654 137.198 54.2475C137.476 53.9425 137.83 53.706 138.343 53.3645L138.411 53.319L144.411 49.319L144.496 49.262C145.126 48.842 145.56 48.5525 146.034 48.409C146.664 48.2183 147.336 48.2183 147.966 48.409C148.44 48.5525 148.874 48.842 149.503 49.262L149.588 49.319L155.588 53.319L155.657 53.364C156.169 53.706 156.524 53.942 156.801 54.248C157.17 54.6545 157.433 55.1457 157.566 55.678C157.584 55.7475 157.598 55.818 157.61 55.8905C157.689 56.3675 157.138 56.679 156.694 56.4875L156.633 56.4615C156.444 56.3815 156.323 56.2015 156.273 56.0015C156.193 55.6823 156.036 55.3878 155.814 55.144C155.661 54.9755 155.456 54.833 154.849 54.4285L148.849 50.4285C148.101 49.9295 147.84 49.764 147.579 49.685L147.58 49.6855Z" fill="#98A2B3"/>
<path fill-rule="evenodd" clip-rule="evenodd" d="M153 59.0615C149.686 59.0615 147 61.748 147 65.0615C147 68.3755 149.686 71.0615 153 71.0615C156.314 71.0615 159 68.3755 159 65.0615C159 61.748 156.314 59.0615 153 59.0615ZM145.667 65.0615C145.667 61.0115 148.95 57.7285 153 57.7285C157.05 57.7285 160.333 61.0115 160.333 65.0615C160.333 69.1115 157.05 72.395 153 72.395C148.95 72.395 145.667 69.1115 145.667 65.0615Z" fill="#98A2B3"/>
<path d="M152.781 68.7273V61.4545H153.247V68.7273H152.781ZM154.238 63.7102C154.208 63.4413 154.083 63.233 153.863 63.0852C153.644 62.9356 153.367 62.8608 153.034 62.8608C152.795 62.8608 152.589 62.8987 152.414 62.9744C152.24 63.0483 152.105 63.1506 152.008 63.2812C151.913 63.41 151.866 63.5568 151.866 63.7216C151.866 63.8598 151.898 63.9792 151.963 64.0795C152.029 64.1799 152.115 64.2642 152.221 64.3324C152.329 64.3987 152.445 64.4545 152.568 64.5C152.691 64.5436 152.809 64.5795 152.923 64.608L153.491 64.7557C153.677 64.8011 153.867 64.8627 154.062 64.9403C154.257 65.018 154.438 65.1203 154.605 65.2472C154.771 65.3741 154.906 65.5312 155.008 65.7188C155.112 65.9062 155.164 66.1307 155.164 66.392C155.164 66.7216 155.079 67.0142 154.909 67.2699C154.74 67.5256 154.495 67.7273 154.173 67.875C153.853 68.0227 153.466 68.0966 153.011 68.0966C152.575 68.0966 152.199 68.0275 151.88 67.8892C151.562 67.7509 151.313 67.5549 151.133 67.3011C150.953 67.0455 150.854 66.7424 150.835 66.392H151.716C151.733 66.6023 151.801 66.7775 151.92 66.9176C152.041 67.0559 152.196 67.1591 152.383 67.2273C152.573 67.2936 152.78 67.3267 153.005 67.3267C153.253 67.3267 153.474 67.2879 153.667 67.2102C153.862 67.1307 154.016 67.0208 154.127 66.8807C154.239 66.7386 154.295 66.5729 154.295 66.3835C154.295 66.2112 154.246 66.0701 154.147 65.9602C154.051 65.8504 153.919 65.7595 153.752 65.6875C153.588 65.6155 153.401 65.5521 153.193 65.4972L152.505 65.3097C152.039 65.1828 151.67 64.9962 151.397 64.75C151.127 64.5038 150.991 64.178 150.991 63.7727C150.991 63.4375 151.082 63.1449 151.264 62.8949C151.446 62.6449 151.692 62.4508 152.002 62.3125C152.313 62.1723 152.663 62.1023 153.054 62.1023C153.448 62.1023 153.795 62.1714 154.096 62.3097C154.399 62.4479 154.638 62.6383 154.812 62.8807C154.986 63.1212 155.077 63.3977 155.085 63.7102H154.238Z" fill="#98A2B3"/>
</g>
<g filter="url(#filter2_d_60_3672)">
<circle cx="94" cy="51" r="39" fill="white"/>
</g>
<g opacity="0.6">
<path d="M93.9564 52.7425C98.3564 52.7425 101.885 49.1703 101.885 44.8138C101.885 40.4574 98.3564 36.8416 93.9564 36.8416C89.5564 36.8416 86.0277 40.4138 86.0277 44.7703C86.0277 49.1267 89.5564 52.7425 93.9564 52.7425ZM93.9564 38.9326C97.1802 38.9326 99.794 41.5465 99.794 44.7703C99.794 47.994 97.1802 50.6079 93.9564 50.6079C90.7326 50.6079 88.1188 48.0376 88.1188 44.8138C88.1188 41.5901 90.7326 38.9326 93.9564 38.9326ZM80.1901 65.1584H107.81C108.376 65.1584 108.855 64.6792 108.855 64.1128C108.855 58.6237 104.368 54.1366 98.8792 54.1366H89.1208C83.6317 54.1366 79.1445 58.6237 79.1445 64.1128C79.1445 64.6792 79.6237 65.1584 80.1901 65.1584ZM89.1208 56.2277H98.8792C102.887 56.2277 106.154 59.1901 106.677 63.0673H81.3227C81.8455 59.1901 85.1128 56.2277 89.1208 56.2277Z" fill="#98A2B3"/>
</g>
<defs>
<filter id="filter0_d_60_3672" x="0" y="17" width="94" height="94" filterUnits="userSpaceOnUse" color-interpolation-filters="sRGB">
<feFlood flood-opacity="0" result="BackgroundImageFix"/>
<feColorMatrix in="SourceAlpha" type="matrix" values="0 0 0 0 0 0 0 0 0 0 0 0 0 0 0 0 0 0 127 0" result="hardAlpha"/>
<feOffset dy="4"/>
<feGaussianBlur stdDeviation="8"/>
<feComposite in2="hardAlpha" operator="out"/>
<feColorMatrix type="matrix" values="0 0 0 0 0 0 0 0 0 0 0 0 0 0 0 0 0 0 0.08 0"/>
<feBlend mode="normal" in2="BackgroundImageFix" result="effect1_dropShadow_60_3672"/>
<feBlend mode="normal" in="SourceGraphic" in2="effect1_dropShadow_60_3672" result="shape"/>
</filter>
<filter id="filter1_d_60_3672" x="101" y="17" width="94" height="94" filterUnits="userSpaceOnUse" color-interpolation-filters="sRGB">
<feFlood flood-opacity="0" result="BackgroundImageFix"/>
<feColorMatrix in="SourceAlpha" type="matrix" values="0 0 0 0 0 0 0 0 0 0 0 0 0 0 0 0 0 0 127 0" result="hardAlpha"/>
<feOffset dy="4"/>
<feGaussianBlur stdDeviation="8"/>
<feComposite in2="hardAlpha" operator="out"/>
<feColorMatrix type="matrix" values="0 0 0 0 0 0 0 0 0 0 0 0 0 0 0 0 0 0 0.08 0"/>
<feBlend mode="normal" in2="BackgroundImageFix" result="effect1_dropShadow_60_3672"/>
<feBlend mode="normal" in="SourceGraphic" in2="effect1_dropShadow_60_3672" result="shape"/>
</filter>
<filter id="filter2_d_60_3672" x="39" y="0" width="110" height="110" filterUnits="userSpaceOnUse" color-interpolation-filters="sRGB">
<feFlood flood-opacity="0" result="BackgroundImageFix"/>
<feColorMatrix in="SourceAlpha" type="matrix" values="0 0 0 0 0 0 0 0 0 0 0 0 0 0 0 0 0 0 127 0" result="hardAlpha"/>
<feOffset dy="4"/>
<feGaussianBlur stdDeviation="8"/>
<feComposite in2="hardAlpha" operator="out"/>
<feColorMatrix type="matrix" values="0 0 0 0 0 0 0 0 0 0 0 0 0 0 0 0 0 0 0.1 0"/>
<feBlend mode="normal" in2="BackgroundImageFix" result="effect1_dropShadow_60_3672"/>
<feBlend mode="normal" in="SourceGraphic" in2="effect1_dropShadow_60_3672" result="shape"/>
</filter>
</defs>
</svg>
