<svg width="24" height="24" viewBox="0 0 24 24" fill="none" xmlns="http://www.w3.org/2000/svg">
<path d="M4.70994 3.28994C4.6167 3.1967 4.50601 3.12274 4.38419 3.07228C4.26237 3.02182 4.1318 2.99585 3.99994 2.99585C3.86808 2.99585 3.73751 3.02182 3.61569 3.07228C3.49387 3.12274 3.38318 3.1967 3.28994 3.28994C3.10164 3.47825 2.99585 3.73364 2.99585 3.99994C2.99585 4.26624 3.10164 4.52164 3.28994 4.70994L8.91994 10.3399C8.56375 11.0026 8.43053 11.7623 8.54003 12.5066C8.64953 13.2509 8.99593 13.9401 9.52788 14.472C10.0598 15.004 10.749 15.3503 11.4933 15.4599C12.2376 15.5694 12.9973 15.4361 13.6599 15.0799L19.2899 20.7099C19.3829 20.8037 19.4935 20.8781 19.6154 20.9288C19.7372 20.9796 19.8679 21.0057 19.9999 21.0057C20.132 21.0057 20.2627 20.9796 20.3845 20.9288C20.5064 20.8781 20.617 20.8037 20.7099 20.7099C20.8037 20.617 20.8781 20.5064 20.9288 20.3845C20.9796 20.2627 21.0057 20.132 21.0057 19.9999C21.0057 19.8679 20.9796 19.7372 20.9288 19.6154C20.8781 19.4935 20.8037 19.3829 20.7099 19.2899L4.70994 3.28994ZM11.9999 13.4999C11.6021 13.4999 11.2206 13.3419 10.9393 13.0606C10.658 12.7793 10.4999 12.3978 10.4999 11.9999V11.9299L12.0599 13.4899L11.9999 13.4999Z" fill="#98A2B3"/>
<path d="M12.2201 17C7.92007 17.1 5.10007 13.41 4.22007 12C4.84654 11.0007 5.59943 10.0865 6.46007 9.27999L5.00007 7.86999C3.87139 8.93346 2.90448 10.1564 2.13007 11.5C2.0423 11.652 1.99609 11.8245 1.99609 12C1.99609 12.1755 2.0423 12.348 2.13007 12.5C2.76007 13.59 6.13007 19 12.0201 19H12.2701C13.3776 18.9671 14.4708 18.7404 15.5001 18.33L13.9201 16.75C13.3644 16.8962 12.7943 16.98 12.2201 17ZM21.8701 11.5C21.2301 10.39 17.7001 4.81999 11.7301 4.99999C10.6225 5.03285 9.52931 5.25961 8.50007 5.66999L10.0801 7.24999C10.6357 7.10382 11.2059 7.01997 11.7801 6.99999C16.0701 6.88999 18.8901 10.59 19.7801 12C19.1381 13.0023 18.3683 13.9167 17.4901 14.72L19.0001 16.13C20.1429 15.0693 21.1234 13.8462 21.9101 12.5C21.9918 12.3445 22.0312 12.1702 22.0242 11.9946C22.0171 11.8191 21.964 11.6485 21.8701 11.5Z" fill="#98A2B3"/>
</svg>

