<svg width="36" height="36" viewBox="0 0 36 36" fill="none" xmlns="http://www.w3.org/2000/svg">
<rect width="36" height="36" rx="8" fill="#12B76A"/>
<path d="M19.8909 24.2364C17.9818 23.5273 16.0181 23.4182 14.2181 23.9091C12.9636 24.2364 11.7636 24.8909 10.6727 25.7091L9.90904 26.3637C9.79067 26.482 9.79636 26.6756 9.92147 26.7868L10.0617 26.9115C10.139 26.9802 10.2177 27.0541 10.2909 27.1273C10.4 27.2364 10.509 27.2909 10.6727 27.4C10.8668 27.5294 11.1229 27.5158 11.3021 27.3664L11.3272 27.3455C11.492 27.1807 11.6889 27.0501 11.8738 26.9083C12.7831 26.211 13.7781 25.7386 14.8181 25.4909C16.2909 25.1091 17.8727 25.1637 19.4545 25.7637C20.7636 26.2546 23.4363 26.8546 26.6545 25.4909L26.7053 25.4655C26.7439 25.4462 26.7791 25.4208 26.8097 25.3903L26.8136 25.3864C26.8864 25.3136 26.9636 25.2364 27.0363 25.1637C27.309 24.8364 27.5818 24.5091 27.8 24.1273C28.0805 23.6925 27.5964 23.1645 27.1454 23.4182C24.5818 24.8364 22.2363 25.1091 19.8909 24.2364Z" fill="#EAECF0"/>
<path d="M12.4182 18.3454C13.8909 17.9636 15.4727 18.0182 17.0545 18.6182C18.8 19.2727 23.2727 20.2 28.2909 15.6727L29.1091 14.8545L29.1636 14.8L29.1741 14.7895C29.3001 14.6635 29.3389 14.4745 29.2727 14.3091C29.2182 14.0909 29.1091 13.8182 29 13.5454L28.9625 13.4406C28.8532 13.1345 28.4624 13.0467 28.2326 13.2765C28.199 13.3101 28.1727 13.3504 28.1427 13.3874C28.0834 13.4605 27.9962 13.5128 27.9091 13.6C25.5091 16.0545 21.8 18.5636 17.5454 17.0364C15.6364 16.3273 13.6727 16.2182 11.8727 16.7091C10.1351 17.1978 8.61369 18.119 7.20089 19.4188C7.19362 19.4255 7.18181 19.4203 7.18181 19.4105C7.18181 19.4002 7.16923 19.3952 7.1622 19.4027L6.47348 20.1373C6.4029 20.2126 6.32751 20.2907 6.25454 20.3636L6.24993 20.3682C6.15127 20.4669 6.1116 20.6101 6.14545 20.7454C6.19738 21.0051 6.29874 21.2647 6.35541 21.5244C6.3611 21.5505 6.36833 21.5762 6.3777 21.6012L6.39274 21.6413C6.52272 21.9879 6.98294 22.0567 7.20864 21.7633C7.22707 21.7393 7.24239 21.7131 7.25951 21.6882C7.27351 21.6678 7.28932 21.6492 7.30591 21.6314C7.41044 21.5192 7.51254 21.402 7.62623 21.2991C8.75671 20.2758 10.2915 18.916 12.4182 18.3454Z" fill="#EAECF0"/>
<path d="M6.74539 17.7454C6.99992 17.4909 7.24971 17.229 7.51184 16.9823C8.66901 15.8933 9.95401 15.1923 11.3272 14.8C12.7999 14.4181 14.3818 14.4727 15.9636 15.0727C20.8727 16.8727 25.1272 13.9272 26.9818 12.3454L27.6908 11.6363C27.8451 11.5129 27.8794 11.292 27.7698 11.1275L27.7667 11.1228C27.7525 11.1016 27.7362 11.0819 27.7188 11.0633C27.5695 10.9032 27.4636 10.697 27.309 10.4909L27.3057 10.4865C27.1347 10.2585 26.8015 10.2348 26.5999 10.4363C26.5454 10.4909 26.4363 10.6 26.3818 10.6545C24.0908 12.8363 20.5454 15.0727 16.509 13.5454C14.5999 12.8363 12.6363 12.7272 10.8363 13.2182C9.69085 13.5454 8.59994 14.0909 7.50903 14.8L6.36357 15.7272C6.25448 15.8363 6.19993 15.8909 6.09084 16L6.08053 16.0103C6.01729 16.0735 5.98176 16.1593 5.98176 16.2487C5.98176 16.2647 5.98061 16.2806 5.97844 16.2964C5.92719 16.6703 5.92608 17.0431 5.87266 17.3636L5.8721 17.3778C5.8534 17.8451 6.42431 18.0854 6.74539 17.7454Z" fill="#EAECF0"/>
<path d="M21.4727 27.9455L21.3636 28.2727L21.4727 27.9455C21.309 27.8909 21.2 27.8364 21.0363 27.7818C19.1272 27.0727 17.1636 26.9637 15.3636 27.4546C14.9818 27.5637 14.6 27.6727 14.2181 27.8364L12.909 28.4364C12.7867 28.4975 12.798 28.6757 12.9271 28.7209L13.6727 28.9818C14 29.0909 14.3272 29.2 14.6545 29.3091C14.7607 29.3445 14.8756 29.3445 14.9818 29.3091C15.1454 29.2546 15.309 29.1455 15.4727 29.1455C15.7041 29.1455 15.9127 29.0055 16.1394 28.9594C17.3533 28.7127 18.6583 28.7512 20.0545 29.2C20.2181 29.2546 20.3272 29.3091 20.4909 29.3637L20.6034 29.4087C20.7068 29.45 20.8216 29.4534 20.9272 29.4182C21.309 29.3091 21.7454 29.2 22.0727 29.0364C22.5254 28.8747 22.4855 28.2219 22.0181 28.1091C21.8545 28.0546 21.6363 28 21.4727 27.9455Z" fill="#EAECF0"/>
<path d="M29.768 17.8105C29.7858 17.4004 29.2903 17.1825 29 17.4727C28.8909 17.5818 28.7818 17.6909 28.6728 17.8C26.4364 19.9273 22.8364 22.2182 18.8 20.6909C16.8909 19.9818 14.9273 19.8727 13.1273 20.3636C11.4364 20.8546 9.90911 21.7273 8.54547 23.0364L7.83639 23.8C7.70645 23.9624 7.69656 24.1903 7.81194 24.3633L7.83639 24.4C8.00002 24.6182 8.10912 24.7818 8.21821 25C8.37921 25.2415 8.7295 25.2543 8.9077 25.0252L8.9273 25C8.98184 24.9455 9.09093 24.8364 9.14548 24.7818C10.4546 23.3636 11.8727 22.4909 13.5091 22.0545C14.9818 21.6727 16.5637 21.7273 18.1455 22.3273C19.5091 22.8182 20.9273 22.9818 22.3455 22.8182C24.8546 22.5455 27.3637 21.1273 29.2182 19.5455C29.3273 19.4364 29.4364 19.3818 29.5455 19.2727L29.5934 19.2248C29.6675 19.1507 29.7091 19.0502 29.7091 18.9455C29.7091 18.6182 29.7637 18.2364 29.7637 17.9091L29.768 17.8105Z" fill="#EAECF0"/>
<path d="M9.09081 11.6363L8.92718 11.3091L9.09081 11.6363C9.41808 11.4727 9.79991 11.3636 10.1272 11.2545C11.5999 10.8727 13.1817 10.9272 14.7635 11.5272C15.7999 11.9091 16.8363 12.0727 17.9817 12.0727C20.2726 12.0727 22.5635 11.2545 24.6908 9.6727L25.509 9.01815C25.6481 8.90689 25.6466 8.69489 25.506 8.58554L25.2908 8.41815C25.1272 8.25451 24.909 8.09088 24.6908 7.98179L24.6174 7.93283C24.4662 7.83205 24.2672 7.84069 24.1253 7.95418C24.1024 7.97253 24.077 7.98768 24.0528 8.00423C24.0126 8.03164 23.9794 8.06607 23.9455 8.09982C23.8688 8.17627 23.7742 8.23344 23.6871 8.29777C20.8399 10.3995 17.9951 10.9661 15.309 9.94543C13.3454 9.23634 11.3817 9.0727 9.41809 9.6727C9.2666 9.7232 9.11512 9.77368 8.92037 9.82418C8.8887 9.83239 8.85787 9.84372 8.8286 9.85835L8.8218 9.86175C8.78322 9.88105 8.748 9.90643 8.7175 9.93693L8.69158 9.96285C8.63288 10.0215 8.58951 10.0891 8.522 10.1373C8.50524 10.1493 8.4851 10.1723 8.4735 10.1893C8.25834 10.5053 7.99417 10.7722 7.78172 11.0909L7.72557 11.1766C7.46057 11.5811 7.90506 12.0741 8.33477 11.8524C8.40147 11.8179 8.47569 11.8018 8.55031 11.7937C8.77049 11.7698 8.95065 11.6831 9.09081 11.6363Z" fill="#EAECF0"/>
<path d="M13.5636 7.92727L13.7273 7.98182C14.4364 8.25454 15.5273 8.52727 16.8909 8.52727C18.3091 8.52727 19.6727 8.2 21.0364 7.65454L21.6404 7.36226C22.0369 7.1704 21.9997 6.59384 21.5818 6.45455C21.2687 6.35019 20.9556 6.24582 20.5948 6.18922C20.562 6.18407 20.5288 6.18182 20.4956 6.18182C20.4202 6.18182 20.3454 6.19397 20.2739 6.2178L20.2182 6.23636C20.0546 6.2909 19.8909 6.40001 19.7273 6.45455C18.0909 7.05455 16.4545 7.16364 14.8727 6.72728C14.7091 6.67273 14.5455 6.61818 14.3818 6.56363C14.2756 6.52822 14.1608 6.52823 14.0545 6.56363C13.7273 6.67272 13.4 6.78182 13.0727 6.94546L12.9134 7.01471C12.5429 7.17583 12.5768 7.71217 12.9647 7.82531C13.0692 7.85578 13.1851 7.84012 13.2931 7.85409C13.3765 7.86488 13.4701 7.89607 13.5636 7.92727Z" fill="#EAECF0"/>
</svg>
